<svg viewBox="0 0 60 60" xmlns="http://www.w3.org/2000/svg">
<path d="M30 55C43.8075 55 55 43.8075 55 30C55 16.1925 43.8075 5 30 5C16.1925 5 5 16.1925 5 30C5 43.8075 16.1925 55 30 55Z" stroke="#3A86FF" stroke-width="4"/>
<path d="M7.5 38.7325C10.79 40.0512 13.1588 40.0512 14.605 38.7325C16.775 36.7525 14.9025 30.7475 17.9425 29.0912C20.98 27.435 25.6113 34.7762 29.9388 32.3612C34.2663 29.945 29.5313 23.5025 32.5338 20.8912C35.5375 18.2787 39.4425 21.225 40.125 16.8575C40.8075 12.4912 36.94 14.385 36.1975 10.2575C35.7038 7.5075 35.7038 6.06125 36.1975 5.92M36.275 54.1875C33.9338 51.79 33.09 49.5625 33.7462 47.5025C34.73 44.4125 36.3538 44.595 37.0613 42.685C37.7688 40.775 35.77 38.0537 40.205 35.7287C43.1625 34.1787 47.2288 35.9737 52.4038 41.1175" stroke="#3A86FF" stroke-width="4" stroke-linecap="round"/>
</svg>
