<svg width="202" height="53" viewBox="0 0 202 53" fill="none" xmlns="http://www.w3.org/2000/svg">
<g clip-path="url(#clip0_441_3063)">
<g clip-path="url(#clip1_441_3063)">
<path d="M1.72363 0.0380249L1.8105 0.225657L23.712 0.55421C25.2487 0.574284 26.7742 0.817533 28.24 1.27624C30.6513 2.02914 32.842 3.35345 34.6233 5.13496C35.1046 5.61376 35.5545 6.12282 35.9701 6.65897C38.3353 9.73708 39.2374 12.8659 39.0485 15.8284C38.8445 18.935 37.7384 21.9244 35.7517 24.3834C34.9518 25.3697 34.043 26.2636 33.0422 27.0483C29.9343 29.5025 28.9214 33.7484 30.6602 37.2952L34.5938 45.3261L38.1608 52.6097L38.2556 52.8116L51.2771 53L51.0946 52.6097L47.5285 45.3261L43.5909 37.2888C41.856 33.7436 42.8657 29.4986 45.9761 27.0483C46.9771 26.2624 47.886 25.3672 48.6856 24.3795C50.6731 21.9252 51.7792 18.931 51.976 15.8244C52.1649 12.8619 51.2699 9.73312 48.9039 6.65501C47.458 4.78194 45.6028 3.25957 43.4783 2.20273C41.3537 1.1459 39.0153 0.582218 36.6395 0.55421L1.72363 0.0380249Z" fill="black"/>
<path opacity="0.12" d="M28.1258 26.6104C26.3136 28.2374 25.3238 30.6742 25.3238 33.1617C25.3221 34.4037 25.572 35.6333 26.0586 36.7774L29.4726 44.7458L32.5662 51.97L32.6459 52.1727L31.6633 52.1576L13.4084 51.8473C12.0545 51.8233 10.714 51.5764 9.44141 51.1166C7.28335 50.3378 5.36166 49.0237 3.85906 47.299C3.43582 46.8182 3.04425 46.3107 2.6868 45.7797C0.881794 43.0918 -0.0555892 39.9211 -0.000379724 36.6903C0.0577947 32.0335 2.08115 27.8906 5.17954 25.1933C7.95996 22.785 8.79671 18.49 7.26107 14.9322C6.16213 12.3797 5.17954 9.80514 4.16746 7.41897C4.16029 7.39047 1.09617 0.195549 1.09617 0.195549L1.01967 0L20.0252 0.325387C21.3661 0.343302 22.6946 0.58414 23.9555 1.03791C24.042 1.06737 24.1268 1.10119 24.2098 1.13925C26.2533 1.92727 28.0688 3.20561 29.4941 4.86021C29.915 5.34013 30.3065 5.84483 30.6663 6.37156C32.7192 9.42988 33.5049 12.5325 33.3376 15.4681C33.163 18.5557 32.202 21.5206 30.4775 23.9575C29.7958 24.9263 29.007 25.8162 28.1258 26.6104Z" fill="black"/>
<path d="M27.1219 26.3864C25.3018 28.0347 24.3056 30.4866 24.3056 33.0026C24.3041 34.2515 24.5542 35.4882 25.0412 36.6396L28.4766 44.6809L31.5918 51.97L31.6643 52.1576L13.4095 51.8473C12.0555 51.8233 10.715 51.5764 9.44244 51.1166C7.28438 50.3378 5.36268 49.0237 3.86008 47.299C3.43684 46.8182 3.04527 46.3107 2.68782 45.7797C0.882534 43.0919 -0.0551294 39.9211 -0.000155324 36.6903C0.0580191 32.0335 2.08137 27.8906 5.17976 25.1933C7.96018 22.785 8.79694 18.49 7.26129 14.9322C6.16235 12.3797 5.17976 9.80514 4.16769 7.41897C4.16051 7.39047 1.09639 0.195549 1.09639 0.195549L1.01989 0L20.0254 0.325387C21.3859 0.345243 22.7332 0.594199 24.01 1.06166L24.2849 1.18042C25.8951 1.98105 27.3275 3.09419 28.4974 4.45407C28.9225 4.93769 29.3164 5.4475 29.6768 5.98046C31.744 9.06095 32.5297 12.1913 32.3624 15.1562C32.1879 18.266 31.2196 21.2594 29.4871 23.7184C28.7983 24.6902 28.0053 25.5848 27.1219 26.3864Z" fill="#3A86FF"/>
</g>
<path d="M63.5946 33V20.4H69.7506C71.3346 20.4 72.5226 20.7 73.3146 21.3C74.1186 21.9 74.5206 22.692 74.5206 23.676C74.5206 24.336 74.3586 24.912 74.0346 25.404C73.7106 25.884 73.2666 26.256 72.7026 26.52C72.1386 26.784 71.4906 26.916 70.7586 26.916L71.1006 26.178C71.8926 26.178 72.5946 26.31 73.2066 26.574C73.8186 26.826 74.2926 27.204 74.6286 27.708C74.9766 28.212 75.1506 28.83 75.1506 29.562C75.1506 30.642 74.7246 31.488 73.8726 32.1C73.0206 32.7 71.7666 33 70.1106 33H63.5946ZM66.4926 30.804H69.8946C70.6506 30.804 71.2206 30.684 71.6046 30.444C72.0006 30.192 72.1986 29.796 72.1986 29.256C72.1986 28.728 72.0006 28.338 71.6046 28.086C71.2206 27.822 70.6506 27.69 69.8946 27.69H66.2766V25.566H69.3906C70.0986 25.566 70.6386 25.446 71.0106 25.206C71.3946 24.954 71.5866 24.576 71.5866 24.072C71.5866 23.58 71.3946 23.214 71.0106 22.974C70.6386 22.722 70.0986 22.596 69.3906 22.596H66.4926V30.804ZM77.1603 33V23.316H79.8423V26.052L79.4643 25.26C79.7523 24.576 80.2143 24.06 80.8503 23.712C81.4863 23.352 82.2603 23.172 83.1723 23.172V25.764C83.0523 25.752 82.9443 25.746 82.8483 25.746C82.7523 25.734 82.6503 25.728 82.5423 25.728C81.7743 25.728 81.1503 25.95 80.6703 26.394C80.2023 26.826 79.9683 27.504 79.9683 28.428V33H77.1603ZM84.8595 33V23.316H87.6675V33H84.8595ZM86.2635 21.966C85.7475 21.966 85.3275 21.816 85.0035 21.516C84.6795 21.216 84.5175 20.844 84.5175 20.4C84.5175 19.956 84.6795 19.584 85.0035 19.284C85.3275 18.984 85.7475 18.834 86.2635 18.834C86.7795 18.834 87.1995 18.978 87.5235 19.266C87.8475 19.542 88.0095 19.902 88.0095 20.346C88.0095 20.814 87.8475 21.204 87.5235 21.516C87.2115 21.816 86.7915 21.966 86.2635 21.966ZM94.8275 36.636C93.9155 36.636 93.0335 36.522 92.1815 36.294C91.3415 36.078 90.6395 35.748 90.0755 35.304L91.1915 33.288C91.5995 33.624 92.1155 33.888 92.7395 34.08C93.3755 34.284 93.9995 34.386 94.6115 34.386C95.6075 34.386 96.3275 34.164 96.7715 33.72C97.2275 33.276 97.4555 32.616 97.4555 31.74V30.282L97.6355 27.852L97.5995 25.404V23.316H100.264V31.38C100.264 33.18 99.7955 34.506 98.8595 35.358C97.9235 36.21 96.5795 36.636 94.8275 36.636ZM94.3955 32.532C93.4955 32.532 92.6795 32.34 91.9475 31.956C91.2275 31.56 90.6455 31.014 90.2015 30.318C89.7695 29.61 89.5535 28.788 89.5535 27.852C89.5535 26.904 89.7695 26.082 90.2015 25.386C90.6455 24.678 91.2275 24.132 91.9475 23.748C92.6795 23.364 93.4955 23.172 94.3955 23.172C95.2115 23.172 95.9315 23.34 96.5555 23.676C97.1795 24 97.6655 24.51 98.0135 25.206C98.3615 25.89 98.5355 26.772 98.5355 27.852C98.5355 28.92 98.3615 29.802 98.0135 30.498C97.6655 31.182 97.1795 31.692 96.5555 32.028C95.9315 32.364 95.2115 32.532 94.3955 32.532ZM94.9535 30.228C95.4455 30.228 95.8835 30.132 96.2675 29.94C96.6515 29.736 96.9515 29.454 97.1675 29.094C97.3835 28.734 97.4915 28.32 97.4915 27.852C97.4915 27.372 97.3835 26.958 97.1675 26.61C96.9515 26.25 96.6515 25.974 96.2675 25.782C95.8835 25.578 95.4455 25.476 94.9535 25.476C94.4615 25.476 94.0235 25.578 93.6395 25.782C93.2555 25.974 92.9495 26.25 92.7215 26.61C92.5055 26.958 92.3975 27.372 92.3975 27.852C92.3975 28.32 92.5055 28.734 92.7215 29.094C92.9495 29.454 93.2555 29.736 93.6395 29.94C94.0235 30.132 94.4615 30.228 94.9535 30.228ZM108.763 23.172C109.531 23.172 110.215 23.328 110.815 23.64C111.427 23.94 111.907 24.408 112.255 25.044C112.603 25.668 112.777 26.472 112.777 27.456V33H109.969V27.888C109.969 27.108 109.795 26.532 109.447 26.16C109.111 25.788 108.631 25.602 108.007 25.602C107.563 25.602 107.161 25.698 106.801 25.89C106.453 26.07 106.177 26.352 105.973 26.736C105.781 27.12 105.685 27.612 105.685 28.212V33H102.877V19.644H105.685V25.998L105.055 25.188C105.403 24.54 105.901 24.042 106.549 23.694C107.197 23.346 107.935 23.172 108.763 23.172ZM119.282 33.144C118.142 33.144 117.254 32.856 116.618 32.28C115.982 31.692 115.664 30.822 115.664 29.67V21.174H118.472V29.634C118.472 30.042 118.58 30.36 118.796 30.588C119.012 30.804 119.306 30.912 119.678 30.912C120.122 30.912 120.5 30.792 120.812 30.552L121.568 32.532C121.28 32.736 120.932 32.892 120.524 33C120.128 33.096 119.714 33.144 119.282 33.144ZM114.17 25.692V23.532H120.884V25.692H114.17Z" fill="#3A86FF"/>
<path d="M128.45 33V20.4H133.364C134.468 20.4 135.41 20.574 136.19 20.922C136.97 21.27 137.57 21.774 137.99 22.434C138.41 23.094 138.62 23.88 138.62 24.792C138.62 25.704 138.41 26.49 137.99 27.15C137.57 27.798 136.97 28.296 136.19 28.644C135.41 28.992 134.468 29.166 133.364 29.166H129.44L130.25 28.338V33H128.45ZM136.874 33L133.67 28.428H135.596L138.836 33H136.874ZM130.25 28.518L129.44 27.636H133.31C134.462 27.636 135.332 27.39 135.92 26.898C136.52 26.394 136.82 25.692 136.82 24.792C136.82 23.892 136.52 23.196 135.92 22.704C135.332 22.212 134.462 21.966 133.31 21.966H129.44L130.25 21.066V28.518ZM145.524 33.108C144.504 33.108 143.604 32.898 142.824 32.478C142.056 32.058 141.456 31.482 141.024 30.75C140.604 30.018 140.394 29.178 140.394 28.23C140.394 27.282 140.598 26.442 141.006 25.71C141.426 24.978 141.996 24.408 142.716 24C143.448 23.58 144.27 23.37 145.182 23.37C146.106 23.37 146.922 23.574 147.63 23.982C148.338 24.39 148.89 24.966 149.286 25.71C149.694 26.442 149.898 27.3 149.898 28.284C149.898 28.356 149.892 28.44 149.88 28.536C149.88 28.632 149.874 28.722 149.862 28.806H141.744V27.564H148.962L148.26 27.996C148.272 27.384 148.146 26.838 147.882 26.358C147.618 25.878 147.252 25.506 146.784 25.242C146.328 24.966 145.794 24.828 145.182 24.828C144.582 24.828 144.048 24.966 143.58 25.242C143.112 25.506 142.746 25.884 142.482 26.376C142.218 26.856 142.086 27.408 142.086 28.032V28.32C142.086 28.956 142.23 29.526 142.518 30.03C142.818 30.522 143.232 30.906 143.76 31.182C144.288 31.458 144.894 31.596 145.578 31.596C146.142 31.596 146.652 31.5 147.108 31.308C147.576 31.116 147.984 30.828 148.332 30.444L149.286 31.56C148.854 32.064 148.314 32.448 147.666 32.712C147.03 32.976 146.316 33.108 145.524 33.108ZM143.814 22.074L146.262 19.734H148.458L145.434 22.074H143.814ZM155.033 33.108C154.241 33.108 153.485 33 152.765 32.784C152.057 32.568 151.499 32.304 151.091 31.992L151.811 30.624C152.219 30.9 152.723 31.134 153.323 31.326C153.923 31.518 154.535 31.614 155.159 31.614C155.963 31.614 156.539 31.5 156.887 31.272C157.247 31.044 157.427 30.726 157.427 30.318C157.427 30.018 157.319 29.784 157.103 29.616C156.887 29.448 156.599 29.322 156.239 29.238C155.891 29.154 155.501 29.082 155.069 29.022C154.637 28.95 154.205 28.866 153.773 28.77C153.341 28.662 152.945 28.518 152.585 28.338C152.225 28.146 151.937 27.888 151.721 27.564C151.505 27.228 151.397 26.784 151.397 26.232C151.397 25.656 151.559 25.152 151.883 24.72C152.207 24.288 152.663 23.958 153.251 23.73C153.851 23.49 154.559 23.37 155.375 23.37C155.999 23.37 156.629 23.448 157.265 23.604C157.913 23.748 158.441 23.958 158.849 24.234L158.111 25.602C157.679 25.314 157.229 25.116 156.761 25.008C156.293 24.9 155.825 24.846 155.357 24.846C154.601 24.846 154.037 24.972 153.665 25.224C153.293 25.464 153.107 25.776 153.107 26.16C153.107 26.484 153.215 26.736 153.431 26.916C153.659 27.084 153.947 27.216 154.295 27.312C154.655 27.408 155.051 27.492 155.483 27.564C155.915 27.624 156.347 27.708 156.779 27.816C157.211 27.912 157.601 28.05 157.949 28.23C158.309 28.41 158.597 28.662 158.813 28.986C159.041 29.31 159.155 29.742 159.155 30.282C159.155 30.858 158.987 31.356 158.651 31.776C158.315 32.196 157.841 32.526 157.229 32.766C156.617 32.994 155.885 33.108 155.033 33.108ZM165.329 33.108C164.513 33.108 163.793 32.958 163.169 32.658C162.557 32.358 162.077 31.902 161.729 31.29C161.393 30.666 161.225 29.886 161.225 28.95V23.46H162.953V28.752C162.953 29.688 163.175 30.39 163.619 30.858C164.075 31.326 164.711 31.56 165.527 31.56C166.127 31.56 166.649 31.44 167.093 31.2C167.537 30.948 167.879 30.588 168.119 30.12C168.359 29.64 168.479 29.064 168.479 28.392V23.46H170.207V33H168.569V30.426L168.839 31.11C168.527 31.746 168.059 32.238 167.435 32.586C166.811 32.934 166.109 33.108 165.329 33.108ZM185.43 23.37C186.198 23.37 186.876 23.52 187.464 23.82C188.052 24.12 188.508 24.576 188.832 25.188C189.168 25.8 189.336 26.574 189.336 27.51V33H187.608V27.708C187.608 26.784 187.392 26.088 186.96 25.62C186.528 25.152 185.922 24.918 185.142 24.918C184.566 24.918 184.062 25.038 183.63 25.278C183.198 25.518 182.862 25.872 182.622 26.34C182.394 26.808 182.28 27.39 182.28 28.086V33H180.552V27.708C180.552 26.784 180.336 26.088 179.904 25.62C179.484 25.152 178.878 24.918 178.086 24.918C177.522 24.918 177.024 25.038 176.592 25.278C176.16 25.518 175.824 25.872 175.584 26.34C175.344 26.808 175.224 27.39 175.224 28.086V33H173.496V23.46H175.152V25.998L174.882 25.35C175.182 24.726 175.644 24.24 176.268 23.892C176.892 23.544 177.618 23.37 178.446 23.37C179.358 23.37 180.144 23.598 180.804 24.054C181.464 24.498 181.896 25.176 182.1 26.088L181.398 25.8C181.686 25.068 182.19 24.48 182.91 24.036C183.63 23.592 184.47 23.37 185.43 23.37ZM196.764 33.108C195.744 33.108 194.844 32.898 194.064 32.478C193.296 32.058 192.696 31.482 192.264 30.75C191.844 30.018 191.634 29.178 191.634 28.23C191.634 27.282 191.838 26.442 192.246 25.71C192.666 24.978 193.236 24.408 193.956 24C194.688 23.58 195.51 23.37 196.422 23.37C197.346 23.37 198.162 23.574 198.87 23.982C199.578 24.39 200.13 24.966 200.526 25.71C200.934 26.442 201.138 27.3 201.138 28.284C201.138 28.356 201.132 28.44 201.12 28.536C201.12 28.632 201.114 28.722 201.102 28.806H192.984V27.564H200.202L199.5 27.996C199.512 27.384 199.386 26.838 199.122 26.358C198.858 25.878 198.492 25.506 198.024 25.242C197.568 24.966 197.034 24.828 196.422 24.828C195.822 24.828 195.288 24.966 194.82 25.242C194.352 25.506 193.986 25.884 193.722 26.376C193.458 26.856 193.326 27.408 193.326 28.032V28.32C193.326 28.956 193.47 29.526 193.758 30.03C194.058 30.522 194.472 30.906 195 31.182C195.528 31.458 196.134 31.596 196.818 31.596C197.382 31.596 197.892 31.5 198.348 31.308C198.816 31.116 199.224 30.828 199.572 30.444L200.526 31.56C200.094 32.064 199.554 32.448 198.906 32.712C198.27 32.976 197.556 33.108 196.764 33.108ZM195.054 22.074L197.502 19.734H199.698L196.674 22.074H195.054Z" fill="black"/>
</g>
<defs>
<clipPath id="clip0_441_3063">
<rect width="202" height="53" fill="white"/>
</clipPath>
<clipPath id="clip1_441_3063">
<rect width="52" height="53" fill="white"/>
</clipPath>
</defs>
</svg>
