<svg width="300" height="300" viewBox="0 0 300 300" fill="none" xmlns="http://www.w3.org/2000/svg">
<rect width="300" height="300" fill="black"/>
<g clip-path="url(#clip0_441_3146)">
<g clip-path="url(#clip1_441_3146)">
<path d="M81.7236 110.038L81.8105 110.226L103.712 110.554C105.249 110.574 106.774 110.818 108.24 111.276C110.651 112.029 112.842 113.353 114.623 115.135C115.105 115.614 115.554 116.123 115.97 116.659C118.335 119.737 119.237 122.866 119.049 125.828C118.845 128.935 117.738 131.924 115.752 134.383C114.952 135.37 114.043 136.264 113.042 137.048C109.934 139.503 108.921 143.748 110.66 147.295L114.594 155.326L118.161 162.61L118.256 162.812L131.277 163L131.095 162.61L127.528 155.326L123.591 147.289C121.856 143.744 122.866 139.499 125.976 137.048C126.977 136.262 127.886 135.367 128.686 134.379C130.673 131.925 131.779 128.931 131.976 125.824C132.165 122.862 131.27 119.733 128.904 116.655C127.458 114.782 125.603 113.26 123.478 112.203C121.354 111.146 119.015 110.582 116.639 110.554L81.7236 110.038Z" fill="white"/>
<path opacity="0.12" d="M108.126 136.61C106.314 138.237 105.324 140.674 105.324 143.162C105.322 144.404 105.572 145.633 106.059 146.777L109.473 154.746L112.566 161.97L112.646 162.173L111.663 162.158L93.4084 161.847C92.0545 161.823 90.714 161.576 89.4414 161.117C87.2834 160.338 85.3617 159.024 83.8591 157.299C83.4358 156.818 83.0443 156.311 82.6868 155.78C80.8818 153.092 79.9444 149.921 79.9996 146.69C80.0578 142.034 82.0812 137.891 85.1795 135.193C87.96 132.785 88.7967 128.49 87.2611 124.932C86.1621 122.38 85.1795 119.805 84.1675 117.419C84.1603 117.39 81.0962 110.196 81.0962 110.196L81.0197 110L100.025 110.325C101.366 110.343 102.695 110.584 103.956 111.038C104.042 111.067 104.127 111.101 104.21 111.139C106.253 111.927 108.069 113.206 109.494 114.86C109.915 115.34 110.307 115.845 110.666 116.372C112.719 119.43 113.505 122.533 113.338 125.468C113.163 128.556 112.202 131.521 110.477 133.957C109.796 134.926 109.007 135.816 108.126 136.61Z" fill="white"/>
<path d="M107.122 136.386C105.302 138.035 104.306 140.487 104.306 143.003C104.304 144.252 104.554 145.488 105.041 146.64L108.477 154.681L111.592 161.97L111.664 162.158L93.4095 161.847C92.0555 161.823 90.715 161.576 89.4424 161.117C87.2844 160.338 85.3627 159.024 83.8601 157.299C83.4368 156.818 83.0453 156.311 82.6878 155.78C80.8825 153.092 79.9449 149.921 79.9998 146.69C80.058 142.034 82.0814 137.891 85.1798 135.193C87.9602 132.785 88.7969 128.49 87.2613 124.932C86.1624 122.38 85.1798 119.805 84.1677 117.419C84.1605 117.39 81.0964 110.196 81.0964 110.196L81.0199 110L100.025 110.325C101.386 110.345 102.733 110.594 104.01 111.062L104.285 111.18C105.895 111.981 107.327 113.094 108.497 114.454C108.922 114.938 109.316 115.448 109.677 115.98C111.744 119.061 112.53 122.191 112.362 125.156C112.188 128.266 111.22 131.259 109.487 133.718C108.798 134.69 108.005 135.585 107.122 136.386Z" fill="#3A86FF"/>
</g>
<path d="M81.5946 186V173.4H87.7506C89.3346 173.4 90.5226 173.7 91.3146 174.3C92.1186 174.9 92.5206 175.692 92.5206 176.676C92.5206 177.336 92.3586 177.912 92.0346 178.404C91.7106 178.884 91.2666 179.256 90.7026 179.52C90.1386 179.784 89.4906 179.916 88.7586 179.916L89.1006 179.178C89.8926 179.178 90.5946 179.31 91.2066 179.574C91.8186 179.826 92.2926 180.204 92.6286 180.708C92.9766 181.212 93.1506 181.83 93.1506 182.562C93.1506 183.642 92.7246 184.488 91.8726 185.1C91.0206 185.7 89.7666 186 88.1106 186H81.5946ZM84.4926 183.804H87.8946C88.6506 183.804 89.2206 183.684 89.6046 183.444C90.0006 183.192 90.1986 182.796 90.1986 182.256C90.1986 181.728 90.0006 181.338 89.6046 181.086C89.2206 180.822 88.6506 180.69 87.8946 180.69H84.2766V178.566H87.3906C88.0986 178.566 88.6386 178.446 89.0106 178.206C89.3946 177.954 89.5866 177.576 89.5866 177.072C89.5866 176.58 89.3946 176.214 89.0106 175.974C88.6386 175.722 88.0986 175.596 87.3906 175.596H84.4926V183.804ZM95.1603 186V176.316H97.8423V179.052L97.4643 178.26C97.7523 177.576 98.2143 177.06 98.8503 176.712C99.4863 176.352 100.26 176.172 101.172 176.172V178.764C101.052 178.752 100.944 178.746 100.848 178.746C100.752 178.734 100.65 178.728 100.542 178.728C99.7743 178.728 99.1503 178.95 98.6703 179.394C98.2023 179.826 97.9683 180.504 97.9683 181.428V186H95.1603ZM102.859 186V176.316H105.667V186H102.859ZM104.263 174.966C103.747 174.966 103.327 174.816 103.003 174.516C102.679 174.216 102.517 173.844 102.517 173.4C102.517 172.956 102.679 172.584 103.003 172.284C103.327 171.984 103.747 171.834 104.263 171.834C104.779 171.834 105.199 171.978 105.523 172.266C105.847 172.542 106.009 172.902 106.009 173.346C106.009 173.814 105.847 174.204 105.523 174.516C105.211 174.816 104.791 174.966 104.263 174.966ZM112.828 189.636C111.916 189.636 111.034 189.522 110.182 189.294C109.342 189.078 108.64 188.748 108.076 188.304L109.192 186.288C109.6 186.624 110.116 186.888 110.74 187.08C111.376 187.284 112 187.386 112.612 187.386C113.608 187.386 114.328 187.164 114.772 186.72C115.228 186.276 115.456 185.616 115.456 184.74V183.282L115.636 180.852L115.6 178.404V176.316H118.264V184.38C118.264 186.18 117.796 187.506 116.86 188.358C115.924 189.21 114.58 189.636 112.828 189.636ZM112.396 185.532C111.496 185.532 110.68 185.34 109.948 184.956C109.228 184.56 108.646 184.014 108.202 183.318C107.77 182.61 107.554 181.788 107.554 180.852C107.554 179.904 107.77 179.082 108.202 178.386C108.646 177.678 109.228 177.132 109.948 176.748C110.68 176.364 111.496 176.172 112.396 176.172C113.212 176.172 113.932 176.34 114.556 176.676C115.18 177 115.666 177.51 116.014 178.206C116.362 178.89 116.536 179.772 116.536 180.852C116.536 181.92 116.362 182.802 116.014 183.498C115.666 184.182 115.18 184.692 114.556 185.028C113.932 185.364 113.212 185.532 112.396 185.532ZM112.954 183.228C113.446 183.228 113.884 183.132 114.268 182.94C114.652 182.736 114.952 182.454 115.168 182.094C115.384 181.734 115.492 181.32 115.492 180.852C115.492 180.372 115.384 179.958 115.168 179.61C114.952 179.25 114.652 178.974 114.268 178.782C113.884 178.578 113.446 178.476 112.954 178.476C112.462 178.476 112.024 178.578 111.64 178.782C111.256 178.974 110.95 179.25 110.722 179.61C110.506 179.958 110.398 180.372 110.398 180.852C110.398 181.32 110.506 181.734 110.722 182.094C110.95 182.454 111.256 182.736 111.64 182.94C112.024 183.132 112.462 183.228 112.954 183.228ZM126.763 176.172C127.531 176.172 128.215 176.328 128.815 176.64C129.427 176.94 129.907 177.408 130.255 178.044C130.603 178.668 130.777 179.472 130.777 180.456V186H127.969V180.888C127.969 180.108 127.795 179.532 127.447 179.16C127.111 178.788 126.631 178.602 126.007 178.602C125.563 178.602 125.161 178.698 124.801 178.89C124.453 179.07 124.177 179.352 123.973 179.736C123.781 180.12 123.685 180.612 123.685 181.212V186H120.877V172.644H123.685V178.998L123.055 178.188C123.403 177.54 123.901 177.042 124.549 176.694C125.197 176.346 125.935 176.172 126.763 176.172ZM137.282 186.144C136.142 186.144 135.254 185.856 134.618 185.28C133.982 184.692 133.664 183.822 133.664 182.67V174.174H136.472V182.634C136.472 183.042 136.58 183.36 136.796 183.588C137.012 183.804 137.306 183.912 137.678 183.912C138.122 183.912 138.5 183.792 138.812 183.552L139.568 185.532C139.28 185.736 138.932 185.892 138.524 186C138.128 186.096 137.714 186.144 137.282 186.144ZM132.17 178.692V176.532H138.884V178.692H132.17Z" fill="#3A86FF"/>
<path d="M146.45 186V173.4H151.364C152.468 173.4 153.41 173.574 154.19 173.922C154.97 174.27 155.57 174.774 155.99 175.434C156.41 176.094 156.62 176.88 156.62 177.792C156.62 178.704 156.41 179.49 155.99 180.15C155.57 180.798 154.97 181.296 154.19 181.644C153.41 181.992 152.468 182.166 151.364 182.166H147.44L148.25 181.338V186H146.45ZM154.874 186L151.67 181.428H153.596L156.836 186H154.874ZM148.25 181.518L147.44 180.636H151.31C152.462 180.636 153.332 180.39 153.92 179.898C154.52 179.394 154.82 178.692 154.82 177.792C154.82 176.892 154.52 176.196 153.92 175.704C153.332 175.212 152.462 174.966 151.31 174.966H147.44L148.25 174.066V181.518ZM163.524 186.108C162.504 186.108 161.604 185.898 160.824 185.478C160.056 185.058 159.456 184.482 159.024 183.75C158.604 183.018 158.394 182.178 158.394 181.23C158.394 180.282 158.598 179.442 159.006 178.71C159.426 177.978 159.996 177.408 160.716 177C161.448 176.58 162.27 176.37 163.182 176.37C164.106 176.37 164.922 176.574 165.63 176.982C166.338 177.39 166.89 177.966 167.286 178.71C167.694 179.442 167.898 180.3 167.898 181.284C167.898 181.356 167.892 181.44 167.88 181.536C167.88 181.632 167.874 181.722 167.862 181.806H159.744V180.564H166.962L166.26 180.996C166.272 180.384 166.146 179.838 165.882 179.358C165.618 178.878 165.252 178.506 164.784 178.242C164.328 177.966 163.794 177.828 163.182 177.828C162.582 177.828 162.048 177.966 161.58 178.242C161.112 178.506 160.746 178.884 160.482 179.376C160.218 179.856 160.086 180.408 160.086 181.032V181.32C160.086 181.956 160.23 182.526 160.518 183.03C160.818 183.522 161.232 183.906 161.76 184.182C162.288 184.458 162.894 184.596 163.578 184.596C164.142 184.596 164.652 184.5 165.108 184.308C165.576 184.116 165.984 183.828 166.332 183.444L167.286 184.56C166.854 185.064 166.314 185.448 165.666 185.712C165.03 185.976 164.316 186.108 163.524 186.108ZM161.814 175.074L164.262 172.734H166.458L163.434 175.074H161.814ZM173.033 186.108C172.241 186.108 171.485 186 170.765 185.784C170.057 185.568 169.499 185.304 169.091 184.992L169.811 183.624C170.219 183.9 170.723 184.134 171.323 184.326C171.923 184.518 172.535 184.614 173.159 184.614C173.963 184.614 174.539 184.5 174.887 184.272C175.247 184.044 175.427 183.726 175.427 183.318C175.427 183.018 175.319 182.784 175.103 182.616C174.887 182.448 174.599 182.322 174.239 182.238C173.891 182.154 173.501 182.082 173.069 182.022C172.637 181.95 172.205 181.866 171.773 181.77C171.341 181.662 170.945 181.518 170.585 181.338C170.225 181.146 169.937 180.888 169.721 180.564C169.505 180.228 169.397 179.784 169.397 179.232C169.397 178.656 169.559 178.152 169.883 177.72C170.207 177.288 170.663 176.958 171.251 176.73C171.851 176.49 172.559 176.37 173.375 176.37C173.999 176.37 174.629 176.448 175.265 176.604C175.913 176.748 176.441 176.958 176.849 177.234L176.111 178.602C175.679 178.314 175.229 178.116 174.761 178.008C174.293 177.9 173.825 177.846 173.357 177.846C172.601 177.846 172.037 177.972 171.665 178.224C171.293 178.464 171.107 178.776 171.107 179.16C171.107 179.484 171.215 179.736 171.431 179.916C171.659 180.084 171.947 180.216 172.295 180.312C172.655 180.408 173.051 180.492 173.483 180.564C173.915 180.624 174.347 180.708 174.779 180.816C175.211 180.912 175.601 181.05 175.949 181.23C176.309 181.41 176.597 181.662 176.813 181.986C177.041 182.31 177.155 182.742 177.155 183.282C177.155 183.858 176.987 184.356 176.651 184.776C176.315 185.196 175.841 185.526 175.229 185.766C174.617 185.994 173.885 186.108 173.033 186.108ZM183.329 186.108C182.513 186.108 181.793 185.958 181.169 185.658C180.557 185.358 180.077 184.902 179.729 184.29C179.393 183.666 179.225 182.886 179.225 181.95V176.46H180.953V181.752C180.953 182.688 181.175 183.39 181.619 183.858C182.075 184.326 182.711 184.56 183.527 184.56C184.127 184.56 184.649 184.44 185.093 184.2C185.537 183.948 185.879 183.588 186.119 183.12C186.359 182.64 186.479 182.064 186.479 181.392V176.46H188.207V186H186.569V183.426L186.839 184.11C186.527 184.746 186.059 185.238 185.435 185.586C184.811 185.934 184.109 186.108 183.329 186.108ZM203.43 176.37C204.198 176.37 204.876 176.52 205.464 176.82C206.052 177.12 206.508 177.576 206.832 178.188C207.168 178.8 207.336 179.574 207.336 180.51V186H205.608V180.708C205.608 179.784 205.392 179.088 204.96 178.62C204.528 178.152 203.922 177.918 203.142 177.918C202.566 177.918 202.062 178.038 201.63 178.278C201.198 178.518 200.862 178.872 200.622 179.34C200.394 179.808 200.28 180.39 200.28 181.086V186H198.552V180.708C198.552 179.784 198.336 179.088 197.904 178.62C197.484 178.152 196.878 177.918 196.086 177.918C195.522 177.918 195.024 178.038 194.592 178.278C194.16 178.518 193.824 178.872 193.584 179.34C193.344 179.808 193.224 180.39 193.224 181.086V186H191.496V176.46H193.152V178.998L192.882 178.35C193.182 177.726 193.644 177.24 194.268 176.892C194.892 176.544 195.618 176.37 196.446 176.37C197.358 176.37 198.144 176.598 198.804 177.054C199.464 177.498 199.896 178.176 200.1 179.088L199.398 178.8C199.686 178.068 200.19 177.48 200.91 177.036C201.63 176.592 202.47 176.37 203.43 176.37ZM214.764 186.108C213.744 186.108 212.844 185.898 212.064 185.478C211.296 185.058 210.696 184.482 210.264 183.75C209.844 183.018 209.634 182.178 209.634 181.23C209.634 180.282 209.838 179.442 210.246 178.71C210.666 177.978 211.236 177.408 211.956 177C212.688 176.58 213.51 176.37 214.422 176.37C215.346 176.37 216.162 176.574 216.87 176.982C217.578 177.39 218.13 177.966 218.526 178.71C218.934 179.442 219.138 180.3 219.138 181.284C219.138 181.356 219.132 181.44 219.12 181.536C219.12 181.632 219.114 181.722 219.102 181.806H210.984V180.564H218.202L217.5 180.996C217.512 180.384 217.386 179.838 217.122 179.358C216.858 178.878 216.492 178.506 216.024 178.242C215.568 177.966 215.034 177.828 214.422 177.828C213.822 177.828 213.288 177.966 212.82 178.242C212.352 178.506 211.986 178.884 211.722 179.376C211.458 179.856 211.326 180.408 211.326 181.032V181.32C211.326 181.956 211.47 182.526 211.758 183.03C212.058 183.522 212.472 183.906 213 184.182C213.528 184.458 214.134 184.596 214.818 184.596C215.382 184.596 215.892 184.5 216.348 184.308C216.816 184.116 217.224 183.828 217.572 183.444L218.526 184.56C218.094 185.064 217.554 185.448 216.906 185.712C216.27 185.976 215.556 186.108 214.764 186.108ZM213.054 175.074L215.502 172.734H217.698L214.674 175.074H213.054Z" fill="white"/>
</g>
<defs>
<clipPath id="clip0_441_3146">
<rect width="140" height="81" fill="white" transform="translate(80 110)"/>
</clipPath>
<clipPath id="clip1_441_3146">
<rect width="52" height="53" fill="white" transform="translate(80 110)"/>
</clipPath>
</defs>
</svg>
