<svg viewBox="0 0 60 60" xmlns="http://www.w3.org/2000/svg">
<path d="M16.25 50C12.4583 50 9.21833 48.6875 6.53 46.0625C3.84167 43.4375 2.49833 40.2292 2.5 36.4375C2.5 33.1875 3.47917 30.2917 5.4375 27.75C7.39583 25.2083 9.95833 23.5833 13.125 22.875C14.1667 19.0417 16.25 15.9375 19.375 13.5625C22.5 11.1875 26.0417 10 30 10C34.875 10 39.0108 11.6983 42.4075 15.095C45.8042 18.4917 47.5017 22.6267 47.5 27.5C50.375 27.8333 52.7608 29.0733 54.6575 31.22C56.5542 33.3667 57.5017 35.8767 57.5 38.75C57.5 41.875 56.4058 44.5317 54.2175 46.72C52.0292 48.9083 49.3733 50.0017 46.25 50H16.25ZM25.875 41.4375C26.2083 41.4375 26.5208 41.385 26.8125 41.28C27.1042 41.175 27.375 40.9983 27.625 40.75L38.1875 30.1875C38.6875 29.6875 38.9375 29.0833 38.9375 28.375C38.9375 27.6667 38.6875 27.0625 38.1875 26.5625C37.6875 26.0625 37.0833 25.8125 36.375 25.8125C35.6667 25.8125 35.0625 26.0625 34.5625 26.5625L25.8125 35.3125L22.3125 31.8125C21.8125 31.3125 21.2292 31.0625 20.5625 31.0625C19.8958 31.0625 19.3125 31.3125 18.8125 31.8125C18.3125 32.3125 18.0625 32.9067 18.0625 33.595C18.0625 34.2833 18.3125 34.8767 18.8125 35.375L24.125 40.75C24.375 41 24.6458 41.1775 24.9375 41.2825C25.2292 41.3875 25.5417 41.4392 25.875 41.4375ZM16.25 45H46.25C48 45 49.4792 44.3958 50.6875 43.1875C51.8958 41.9792 52.5 40.5 52.5 38.75C52.5 37 51.8958 35.5208 50.6875 34.3125C49.4792 33.1042 48 32.5 46.25 32.5H42.5V27.5C42.5 24.0417 41.2808 21.0933 38.8425 18.655C36.4042 16.2167 33.4567 14.9983 30 15C26.5417 15 23.5933 16.2192 21.155 18.6575C18.7167 21.0958 17.4983 24.0433 17.5 27.5H16.25C13.8333 27.5 11.7708 28.3542 10.0625 30.0625C8.35417 31.7708 7.5 33.8333 7.5 36.25C7.5 38.6667 8.35417 40.7292 10.0625 42.4375C11.7708 44.1458 13.8333 45 16.25 45Z" fill="#3A86FF"/>
</svg>
