<svg width="300" height="300" viewBox="0 0 300 300" fill="none" xmlns="http://www.w3.org/2000/svg">
<rect width="300" height="300" fill="black"/>
<g clip-path="url(#clip0_441_3114)">
<g clip-path="url(#clip1_441_3114)">
<path d="M50.7236 123.038L50.8105 123.226L72.712 123.554C74.2487 123.574 75.7742 123.818 77.24 124.276C79.6513 125.029 81.842 126.353 83.6233 128.135C84.1046 128.614 84.5545 129.123 84.9701 129.659C87.3353 132.737 88.2374 135.866 88.0485 138.828C87.8445 141.935 86.7384 144.924 84.7517 147.383C83.9518 148.37 83.043 149.264 82.0422 150.048C78.9343 152.502 77.9214 156.748 79.6602 160.295L83.5938 168.326L87.1608 175.61L87.2556 175.812L100.277 176L100.095 175.61L96.5285 168.326L92.5909 160.289C90.856 156.744 91.8657 152.499 94.9761 150.048C95.9771 149.262 96.886 148.367 97.6856 147.379C99.6731 144.925 100.779 141.931 100.976 138.824C101.165 135.862 100.27 132.733 97.9039 129.655C96.458 127.782 94.6028 126.26 92.4783 125.203C90.3537 124.146 88.0153 123.582 85.6395 123.554L50.7236 123.038Z" fill="white"/>
<path opacity="0.12" d="M77.1258 149.61C75.3136 151.237 74.3238 153.674 74.3238 156.162C74.3221 157.404 74.572 158.633 75.0586 159.777L78.4726 167.746L81.5662 174.97L81.6459 175.173L80.6633 175.158L62.4084 174.847C61.0545 174.823 59.714 174.576 58.4414 174.117C56.2834 173.338 54.3617 172.024 52.8591 170.299C52.4358 169.818 52.0443 169.311 51.6868 168.78C49.8818 166.092 48.9444 162.921 48.9996 159.69C49.0578 155.034 51.0812 150.891 54.1795 148.193C56.96 145.785 57.7967 141.49 56.2611 137.932C55.1621 135.38 54.1795 132.805 53.1675 130.419C53.1603 130.39 50.0962 123.196 50.0962 123.196L50.0197 123L69.0252 123.325C70.3661 123.343 71.6946 123.584 72.9555 124.038C73.042 124.067 73.1268 124.101 73.2098 124.139C75.2533 124.927 77.0688 126.206 78.4941 127.86C78.915 128.34 79.3065 128.845 79.6663 129.372C81.7192 132.43 82.5049 135.533 82.3376 138.468C82.163 141.556 81.202 144.521 79.4775 146.957C78.7958 147.926 78.007 148.816 77.1258 149.61Z" fill="white"/>
<path d="M76.1219 149.386C74.3018 151.035 73.3056 153.487 73.3056 156.003C73.3041 157.252 73.5542 158.488 74.0412 159.64L77.4766 167.681L80.5918 174.97L80.6643 175.158L62.4095 174.847C61.0555 174.823 59.715 174.576 58.4424 174.117C56.2844 173.338 54.3627 172.024 52.8601 170.299C52.4368 169.818 52.0453 169.311 51.6878 168.78C49.8825 166.092 48.9449 162.921 48.9998 159.69C49.058 155.034 51.0814 150.891 54.1798 148.193C56.9602 145.785 57.7969 141.49 56.2613 137.932C55.1624 135.38 54.1798 132.805 53.1677 130.419C53.1605 130.39 50.0964 123.196 50.0964 123.196L50.0199 123L69.0254 123.325C70.3859 123.345 71.7332 123.594 73.01 124.062L73.2849 124.18C74.8951 124.981 76.3275 126.094 77.4974 127.454C77.9225 127.938 78.3164 128.448 78.6768 128.98C80.744 132.061 81.5297 135.191 81.3624 138.156C81.1879 141.266 80.2196 144.259 78.4871 146.718C77.7983 147.69 77.0053 148.585 76.1219 149.386Z" fill="#3A86FF"/>
</g>
<path d="M112.595 156V143.4H118.751C120.335 143.4 121.523 143.7 122.315 144.3C123.119 144.9 123.521 145.692 123.521 146.676C123.521 147.336 123.359 147.912 123.035 148.404C122.711 148.884 122.267 149.256 121.703 149.52C121.139 149.784 120.491 149.916 119.759 149.916L120.101 149.178C120.893 149.178 121.595 149.31 122.207 149.574C122.819 149.826 123.293 150.204 123.629 150.708C123.977 151.212 124.151 151.83 124.151 152.562C124.151 153.642 123.725 154.488 122.873 155.1C122.021 155.7 120.767 156 119.111 156H112.595ZM115.493 153.804H118.895C119.651 153.804 120.221 153.684 120.605 153.444C121.001 153.192 121.199 152.796 121.199 152.256C121.199 151.728 121.001 151.338 120.605 151.086C120.221 150.822 119.651 150.69 118.895 150.69H115.277V148.566H118.391C119.099 148.566 119.639 148.446 120.011 148.206C120.395 147.954 120.587 147.576 120.587 147.072C120.587 146.58 120.395 146.214 120.011 145.974C119.639 145.722 119.099 145.596 118.391 145.596H115.493V153.804ZM126.16 156V146.316H128.842V149.052L128.464 148.26C128.752 147.576 129.214 147.06 129.85 146.712C130.486 146.352 131.26 146.172 132.172 146.172V148.764C132.052 148.752 131.944 148.746 131.848 148.746C131.752 148.734 131.65 148.728 131.542 148.728C130.774 148.728 130.15 148.95 129.67 149.394C129.202 149.826 128.968 150.504 128.968 151.428V156H126.16ZM133.859 156V146.316H136.667V156H133.859ZM135.263 144.966C134.747 144.966 134.327 144.816 134.003 144.516C133.679 144.216 133.517 143.844 133.517 143.4C133.517 142.956 133.679 142.584 134.003 142.284C134.327 141.984 134.747 141.834 135.263 141.834C135.779 141.834 136.199 141.978 136.523 142.266C136.847 142.542 137.009 142.902 137.009 143.346C137.009 143.814 136.847 144.204 136.523 144.516C136.211 144.816 135.791 144.966 135.263 144.966ZM143.828 159.636C142.916 159.636 142.034 159.522 141.182 159.294C140.342 159.078 139.64 158.748 139.076 158.304L140.192 156.288C140.6 156.624 141.116 156.888 141.74 157.08C142.376 157.284 143 157.386 143.612 157.386C144.608 157.386 145.328 157.164 145.772 156.72C146.228 156.276 146.456 155.616 146.456 154.74V153.282L146.636 150.852L146.6 148.404V146.316H149.264V154.38C149.264 156.18 148.796 157.506 147.86 158.358C146.924 159.21 145.58 159.636 143.828 159.636ZM143.396 155.532C142.496 155.532 141.68 155.34 140.948 154.956C140.228 154.56 139.646 154.014 139.202 153.318C138.77 152.61 138.554 151.788 138.554 150.852C138.554 149.904 138.77 149.082 139.202 148.386C139.646 147.678 140.228 147.132 140.948 146.748C141.68 146.364 142.496 146.172 143.396 146.172C144.212 146.172 144.932 146.34 145.556 146.676C146.18 147 146.666 147.51 147.014 148.206C147.362 148.89 147.536 149.772 147.536 150.852C147.536 151.92 147.362 152.802 147.014 153.498C146.666 154.182 146.18 154.692 145.556 155.028C144.932 155.364 144.212 155.532 143.396 155.532ZM143.954 153.228C144.446 153.228 144.884 153.132 145.268 152.94C145.652 152.736 145.952 152.454 146.168 152.094C146.384 151.734 146.492 151.32 146.492 150.852C146.492 150.372 146.384 149.958 146.168 149.61C145.952 149.25 145.652 148.974 145.268 148.782C144.884 148.578 144.446 148.476 143.954 148.476C143.462 148.476 143.024 148.578 142.64 148.782C142.256 148.974 141.95 149.25 141.722 149.61C141.506 149.958 141.398 150.372 141.398 150.852C141.398 151.32 141.506 151.734 141.722 152.094C141.95 152.454 142.256 152.736 142.64 152.94C143.024 153.132 143.462 153.228 143.954 153.228ZM157.763 146.172C158.531 146.172 159.215 146.328 159.815 146.64C160.427 146.94 160.907 147.408 161.255 148.044C161.603 148.668 161.777 149.472 161.777 150.456V156H158.969V150.888C158.969 150.108 158.795 149.532 158.447 149.16C158.111 148.788 157.631 148.602 157.007 148.602C156.563 148.602 156.161 148.698 155.801 148.89C155.453 149.07 155.177 149.352 154.973 149.736C154.781 150.12 154.685 150.612 154.685 151.212V156H151.877V142.644H154.685V148.998L154.055 148.188C154.403 147.54 154.901 147.042 155.549 146.694C156.197 146.346 156.935 146.172 157.763 146.172ZM168.282 156.144C167.142 156.144 166.254 155.856 165.618 155.28C164.982 154.692 164.664 153.822 164.664 152.67V144.174H167.472V152.634C167.472 153.042 167.58 153.36 167.796 153.588C168.012 153.804 168.306 153.912 168.678 153.912C169.122 153.912 169.5 153.792 169.812 153.552L170.568 155.532C170.28 155.736 169.932 155.892 169.524 156C169.128 156.096 168.714 156.144 168.282 156.144ZM163.17 148.692V146.532H169.884V148.692H163.17Z" fill="#3A86FF"/>
<path d="M177.45 156V143.4H182.364C183.468 143.4 184.41 143.574 185.19 143.922C185.97 144.27 186.57 144.774 186.99 145.434C187.41 146.094 187.62 146.88 187.62 147.792C187.62 148.704 187.41 149.49 186.99 150.15C186.57 150.798 185.97 151.296 185.19 151.644C184.41 151.992 183.468 152.166 182.364 152.166H178.44L179.25 151.338V156H177.45ZM185.874 156L182.67 151.428H184.596L187.836 156H185.874ZM179.25 151.518L178.44 150.636H182.31C183.462 150.636 184.332 150.39 184.92 149.898C185.52 149.394 185.82 148.692 185.82 147.792C185.82 146.892 185.52 146.196 184.92 145.704C184.332 145.212 183.462 144.966 182.31 144.966H178.44L179.25 144.066V151.518ZM194.524 156.108C193.504 156.108 192.604 155.898 191.824 155.478C191.056 155.058 190.456 154.482 190.024 153.75C189.604 153.018 189.394 152.178 189.394 151.23C189.394 150.282 189.598 149.442 190.006 148.71C190.426 147.978 190.996 147.408 191.716 147C192.448 146.58 193.27 146.37 194.182 146.37C195.106 146.37 195.922 146.574 196.63 146.982C197.338 147.39 197.89 147.966 198.286 148.71C198.694 149.442 198.898 150.3 198.898 151.284C198.898 151.356 198.892 151.44 198.88 151.536C198.88 151.632 198.874 151.722 198.862 151.806H190.744V150.564H197.962L197.26 150.996C197.272 150.384 197.146 149.838 196.882 149.358C196.618 148.878 196.252 148.506 195.784 148.242C195.328 147.966 194.794 147.828 194.182 147.828C193.582 147.828 193.048 147.966 192.58 148.242C192.112 148.506 191.746 148.884 191.482 149.376C191.218 149.856 191.086 150.408 191.086 151.032V151.32C191.086 151.956 191.23 152.526 191.518 153.03C191.818 153.522 192.232 153.906 192.76 154.182C193.288 154.458 193.894 154.596 194.578 154.596C195.142 154.596 195.652 154.5 196.108 154.308C196.576 154.116 196.984 153.828 197.332 153.444L198.286 154.56C197.854 155.064 197.314 155.448 196.666 155.712C196.03 155.976 195.316 156.108 194.524 156.108ZM192.814 145.074L195.262 142.734H197.458L194.434 145.074H192.814ZM204.033 156.108C203.241 156.108 202.485 156 201.765 155.784C201.057 155.568 200.499 155.304 200.091 154.992L200.811 153.624C201.219 153.9 201.723 154.134 202.323 154.326C202.923 154.518 203.535 154.614 204.159 154.614C204.963 154.614 205.539 154.5 205.887 154.272C206.247 154.044 206.427 153.726 206.427 153.318C206.427 153.018 206.319 152.784 206.103 152.616C205.887 152.448 205.599 152.322 205.239 152.238C204.891 152.154 204.501 152.082 204.069 152.022C203.637 151.95 203.205 151.866 202.773 151.77C202.341 151.662 201.945 151.518 201.585 151.338C201.225 151.146 200.937 150.888 200.721 150.564C200.505 150.228 200.397 149.784 200.397 149.232C200.397 148.656 200.559 148.152 200.883 147.72C201.207 147.288 201.663 146.958 202.251 146.73C202.851 146.49 203.559 146.37 204.375 146.37C204.999 146.37 205.629 146.448 206.265 146.604C206.913 146.748 207.441 146.958 207.849 147.234L207.111 148.602C206.679 148.314 206.229 148.116 205.761 148.008C205.293 147.9 204.825 147.846 204.357 147.846C203.601 147.846 203.037 147.972 202.665 148.224C202.293 148.464 202.107 148.776 202.107 149.16C202.107 149.484 202.215 149.736 202.431 149.916C202.659 150.084 202.947 150.216 203.295 150.312C203.655 150.408 204.051 150.492 204.483 150.564C204.915 150.624 205.347 150.708 205.779 150.816C206.211 150.912 206.601 151.05 206.949 151.23C207.309 151.41 207.597 151.662 207.813 151.986C208.041 152.31 208.155 152.742 208.155 153.282C208.155 153.858 207.987 154.356 207.651 154.776C207.315 155.196 206.841 155.526 206.229 155.766C205.617 155.994 204.885 156.108 204.033 156.108ZM214.329 156.108C213.513 156.108 212.793 155.958 212.169 155.658C211.557 155.358 211.077 154.902 210.729 154.29C210.393 153.666 210.225 152.886 210.225 151.95V146.46H211.953V151.752C211.953 152.688 212.175 153.39 212.619 153.858C213.075 154.326 213.711 154.56 214.527 154.56C215.127 154.56 215.649 154.44 216.093 154.2C216.537 153.948 216.879 153.588 217.119 153.12C217.359 152.64 217.479 152.064 217.479 151.392V146.46H219.207V156H217.569V153.426L217.839 154.11C217.527 154.746 217.059 155.238 216.435 155.586C215.811 155.934 215.109 156.108 214.329 156.108ZM234.43 146.37C235.198 146.37 235.876 146.52 236.464 146.82C237.052 147.12 237.508 147.576 237.832 148.188C238.168 148.8 238.336 149.574 238.336 150.51V156H236.608V150.708C236.608 149.784 236.392 149.088 235.96 148.62C235.528 148.152 234.922 147.918 234.142 147.918C233.566 147.918 233.062 148.038 232.63 148.278C232.198 148.518 231.862 148.872 231.622 149.34C231.394 149.808 231.28 150.39 231.28 151.086V156H229.552V150.708C229.552 149.784 229.336 149.088 228.904 148.62C228.484 148.152 227.878 147.918 227.086 147.918C226.522 147.918 226.024 148.038 225.592 148.278C225.16 148.518 224.824 148.872 224.584 149.34C224.344 149.808 224.224 150.39 224.224 151.086V156H222.496V146.46H224.152V148.998L223.882 148.35C224.182 147.726 224.644 147.24 225.268 146.892C225.892 146.544 226.618 146.37 227.446 146.37C228.358 146.37 229.144 146.598 229.804 147.054C230.464 147.498 230.896 148.176 231.1 149.088L230.398 148.8C230.686 148.068 231.19 147.48 231.91 147.036C232.63 146.592 233.47 146.37 234.43 146.37ZM245.764 156.108C244.744 156.108 243.844 155.898 243.064 155.478C242.296 155.058 241.696 154.482 241.264 153.75C240.844 153.018 240.634 152.178 240.634 151.23C240.634 150.282 240.838 149.442 241.246 148.71C241.666 147.978 242.236 147.408 242.956 147C243.688 146.58 244.51 146.37 245.422 146.37C246.346 146.37 247.162 146.574 247.87 146.982C248.578 147.39 249.13 147.966 249.526 148.71C249.934 149.442 250.138 150.3 250.138 151.284C250.138 151.356 250.132 151.44 250.12 151.536C250.12 151.632 250.114 151.722 250.102 151.806H241.984V150.564H249.202L248.5 150.996C248.512 150.384 248.386 149.838 248.122 149.358C247.858 148.878 247.492 148.506 247.024 148.242C246.568 147.966 246.034 147.828 245.422 147.828C244.822 147.828 244.288 147.966 243.82 148.242C243.352 148.506 242.986 148.884 242.722 149.376C242.458 149.856 242.326 150.408 242.326 151.032V151.32C242.326 151.956 242.47 152.526 242.758 153.03C243.058 153.522 243.472 153.906 244 154.182C244.528 154.458 245.134 154.596 245.818 154.596C246.382 154.596 246.892 154.5 247.348 154.308C247.816 154.116 248.224 153.828 248.572 153.444L249.526 154.56C249.094 155.064 248.554 155.448 247.906 155.712C247.27 155.976 246.556 156.108 245.764 156.108ZM244.054 145.074L246.502 142.734H248.698L245.674 145.074H244.054Z" fill="white"/>
</g>
<defs>
<clipPath id="clip0_441_3114">
<rect width="202" height="53" fill="white" transform="translate(49 123)"/>
</clipPath>
<clipPath id="clip1_441_3114">
<rect width="52" height="53" fill="white" transform="translate(49 123)"/>
</clipPath>
</defs>
</svg>
