<svg width="140" height="81" viewBox="0 0 140 81" fill="none" xmlns="http://www.w3.org/2000/svg">
<g clip-path="url(#clip0_441_3077)">
<g clip-path="url(#clip1_441_3077)">
<path d="M1.72363 0.0379944L1.8105 0.225626L23.712 0.554179C25.2487 0.574253 26.7742 0.817503 28.24 1.27621C30.6513 2.02911 32.842 3.35342 34.6233 5.13493C35.1046 5.61373 35.5545 6.12279 35.9701 6.65894C38.3353 9.73705 39.2374 12.8658 39.0485 15.8283C38.8445 18.935 37.7384 21.9244 35.7517 24.3834C34.9518 25.3697 34.043 26.2636 33.0422 27.0482C29.9343 29.5025 28.9214 33.7484 30.6602 37.2951L34.5938 45.3261L38.1608 52.6097L38.2556 52.8116L51.2771 53L51.0946 52.6097L47.5285 45.3261L43.5909 37.2888C41.856 33.7436 42.8657 29.4985 45.9761 27.0482C46.9771 26.2624 47.886 25.3672 48.6856 24.3794C50.6731 21.9252 51.7792 18.931 51.976 15.8244C52.1649 12.8619 51.2699 9.73309 48.9039 6.65498C47.458 4.78191 45.6028 3.25954 43.4783 2.2027C41.3537 1.14587 39.0153 0.582188 36.6395 0.554179L1.72363 0.0379944Z" fill="black"/>
<path opacity="0.12" d="M28.1258 26.6104C26.3136 28.2374 25.3238 30.6742 25.3238 33.1617C25.3221 34.4037 25.572 35.6333 26.0586 36.7774L29.4726 44.7458L32.5662 51.97L32.6459 52.1727L31.6633 52.1576L13.4084 51.8473C12.0545 51.8233 10.714 51.5764 9.44141 51.1166C7.28335 50.3378 5.36166 49.0237 3.85906 47.299C3.43582 46.8182 3.04425 46.3107 2.6868 45.7797C0.881794 43.0918 -0.0555892 39.9211 -0.000379724 36.6903C0.0577947 32.0335 2.08115 27.8906 5.17954 25.1933C7.95996 22.785 8.79671 18.49 7.26107 14.9322C6.16213 12.3797 5.17954 9.80514 4.16746 7.41897C4.16029 7.39047 1.09617 0.195549 1.09617 0.195549L1.01967 0L20.0252 0.325387C21.3661 0.343302 22.6946 0.58414 23.9555 1.03791C24.042 1.06737 24.1268 1.10119 24.2098 1.13925C26.2533 1.92727 28.0688 3.20561 29.4941 4.86021C29.915 5.34013 30.3065 5.84483 30.6663 6.37156C32.7192 9.42988 33.5049 12.5325 33.3376 15.4681C33.163 18.5557 32.202 21.5206 30.4775 23.9575C29.7958 24.9263 29.007 25.8162 28.1258 26.6104Z" fill="black"/>
<path d="M27.1219 26.3864C25.3018 28.0347 24.3056 30.4866 24.3056 33.0026C24.3041 34.2515 24.5542 35.4882 25.0412 36.6396L28.4766 44.6809L31.5918 51.97L31.6643 52.1576L13.4095 51.8473C12.0555 51.8233 10.715 51.5764 9.44244 51.1166C7.28438 50.3378 5.36268 49.0237 3.86008 47.299C3.43684 46.8182 3.04527 46.3107 2.68782 45.7797C0.882534 43.0919 -0.0551294 39.9211 -0.000155324 36.6903C0.0580191 32.0335 2.08137 27.8906 5.17976 25.1933C7.96018 22.785 8.79694 18.49 7.26129 14.9322C6.16235 12.3797 5.17976 9.80514 4.16769 7.41897C4.16051 7.39047 1.09639 0.195549 1.09639 0.195549L1.01989 0L20.0254 0.325387C21.3859 0.345243 22.7332 0.594199 24.01 1.06166L24.2849 1.18042C25.8951 1.98105 27.3275 3.09419 28.4974 4.45407C28.9225 4.93769 29.3164 5.4475 29.6768 5.98046C31.744 9.06095 32.5297 12.1913 32.3624 15.1562C32.1879 18.266 31.2196 21.2594 29.4871 23.7184C28.7983 24.6902 28.0053 25.5848 27.1219 26.3864Z" fill="#3A86FF"/>
</g>
<path d="M1.59459 76V63.4H7.75059C9.33459 63.4 10.5226 63.7 11.3146 64.3C12.1186 64.9 12.5206 65.692 12.5206 66.676C12.5206 67.336 12.3586 67.912 12.0346 68.404C11.7106 68.884 11.2666 69.256 10.7026 69.52C10.1386 69.784 9.49059 69.916 8.75859 69.916L9.10059 69.178C9.89259 69.178 10.5946 69.31 11.2066 69.574C11.8186 69.826 12.2926 70.204 12.6286 70.708C12.9766 71.212 13.1506 71.83 13.1506 72.562C13.1506 73.642 12.7246 74.488 11.8726 75.1C11.0206 75.7 9.76659 76 8.11059 76H1.59459ZM4.49259 73.804H7.89459C8.65059 73.804 9.22059 73.684 9.60459 73.444C10.0006 73.192 10.1986 72.796 10.1986 72.256C10.1986 71.728 10.0006 71.338 9.60459 71.086C9.22059 70.822 8.65059 70.69 7.89459 70.69H4.27659V68.566H7.39059C8.09859 68.566 8.63859 68.446 9.01059 68.206C9.39459 67.954 9.58659 67.576 9.58659 67.072C9.58659 66.58 9.39459 66.214 9.01059 65.974C8.63859 65.722 8.09859 65.596 7.39059 65.596H4.49259V73.804ZM15.1603 76V66.316H17.8423V69.052L17.4643 68.26C17.7523 67.576 18.2143 67.06 18.8503 66.712C19.4863 66.352 20.2603 66.172 21.1723 66.172V68.764C21.0523 68.752 20.9443 68.746 20.8483 68.746C20.7523 68.734 20.6503 68.728 20.5423 68.728C19.7743 68.728 19.1503 68.95 18.6703 69.394C18.2023 69.826 17.9683 70.504 17.9683 71.428V76H15.1603ZM22.8595 76V66.316H25.6675V76H22.8595ZM24.2635 64.966C23.7475 64.966 23.3275 64.816 23.0035 64.516C22.6795 64.216 22.5175 63.844 22.5175 63.4C22.5175 62.956 22.6795 62.584 23.0035 62.284C23.3275 61.984 23.7475 61.834 24.2635 61.834C24.7795 61.834 25.1995 61.978 25.5235 62.266C25.8475 62.542 26.0095 62.902 26.0095 63.346C26.0095 63.814 25.8475 64.204 25.5235 64.516C25.2115 64.816 24.7915 64.966 24.2635 64.966ZM32.8275 79.636C31.9155 79.636 31.0335 79.522 30.1815 79.294C29.3415 79.078 28.6395 78.748 28.0755 78.304L29.1915 76.288C29.5995 76.624 30.1155 76.888 30.7395 77.08C31.3755 77.284 31.9995 77.386 32.6115 77.386C33.6075 77.386 34.3275 77.164 34.7715 76.72C35.2275 76.276 35.4555 75.616 35.4555 74.74V73.282L35.6355 70.852L35.5995 68.404V66.316H38.2635V74.38C38.2635 76.18 37.7955 77.506 36.8595 78.358C35.9235 79.21 34.5795 79.636 32.8275 79.636ZM32.3955 75.532C31.4955 75.532 30.6795 75.34 29.9475 74.956C29.2275 74.56 28.6455 74.014 28.2015 73.318C27.7695 72.61 27.5535 71.788 27.5535 70.852C27.5535 69.904 27.7695 69.082 28.2015 68.386C28.6455 67.678 29.2275 67.132 29.9475 66.748C30.6795 66.364 31.4955 66.172 32.3955 66.172C33.2115 66.172 33.9315 66.34 34.5555 66.676C35.1795 67 35.6655 67.51 36.0135 68.206C36.3615 68.89 36.5355 69.772 36.5355 70.852C36.5355 71.92 36.3615 72.802 36.0135 73.498C35.6655 74.182 35.1795 74.692 34.5555 75.028C33.9315 75.364 33.2115 75.532 32.3955 75.532ZM32.9535 73.228C33.4455 73.228 33.8835 73.132 34.2675 72.94C34.6515 72.736 34.9515 72.454 35.1675 72.094C35.3835 71.734 35.4915 71.32 35.4915 70.852C35.4915 70.372 35.3835 69.958 35.1675 69.61C34.9515 69.25 34.6515 68.974 34.2675 68.782C33.8835 68.578 33.4455 68.476 32.9535 68.476C32.4615 68.476 32.0235 68.578 31.6395 68.782C31.2555 68.974 30.9495 69.25 30.7215 69.61C30.5055 69.958 30.3975 70.372 30.3975 70.852C30.3975 71.32 30.5055 71.734 30.7215 72.094C30.9495 72.454 31.2555 72.736 31.6395 72.94C32.0235 73.132 32.4615 73.228 32.9535 73.228ZM46.7631 66.172C47.5311 66.172 48.2151 66.328 48.8151 66.64C49.4271 66.94 49.9071 67.408 50.2551 68.044C50.6031 68.668 50.7771 69.472 50.7771 70.456V76H47.9691V70.888C47.9691 70.108 47.7951 69.532 47.4471 69.16C47.1111 68.788 46.6311 68.602 46.0071 68.602C45.5631 68.602 45.1611 68.698 44.8011 68.89C44.4531 69.07 44.1771 69.352 43.9731 69.736C43.7811 70.12 43.6851 70.612 43.6851 71.212V76H40.8771V62.644H43.6851V68.998L43.0551 68.188C43.4031 67.54 43.9011 67.042 44.5491 66.694C45.1971 66.346 45.9351 66.172 46.7631 66.172ZM57.2824 76.144C56.1424 76.144 55.2544 75.856 54.6184 75.28C53.9824 74.692 53.6644 73.822 53.6644 72.67V64.174H56.4724V72.634C56.4724 73.042 56.5804 73.36 56.7964 73.588C57.0124 73.804 57.3064 73.912 57.6784 73.912C58.1224 73.912 58.5004 73.792 58.8124 73.552L59.5684 75.532C59.2804 75.736 58.9324 75.892 58.5244 76C58.1284 76.096 57.7144 76.144 57.2824 76.144ZM52.1704 68.692V66.532H58.8844V68.692H52.1704Z" fill="#3A86FF"/>
<path d="M66.4496 76V63.4H71.3636C72.4676 63.4 73.4096 63.574 74.1896 63.922C74.9696 64.27 75.5696 64.774 75.9896 65.434C76.4096 66.094 76.6196 66.88 76.6196 67.792C76.6196 68.704 76.4096 69.49 75.9896 70.15C75.5696 70.798 74.9696 71.296 74.1896 71.644C73.4096 71.992 72.4676 72.166 71.3636 72.166H67.4396L68.2496 71.338V76H66.4496ZM74.8736 76L71.6696 71.428H73.5956L76.8356 76H74.8736ZM68.2496 71.518L67.4396 70.636H71.3096C72.4616 70.636 73.3316 70.39 73.9196 69.898C74.5196 69.394 74.8196 68.692 74.8196 67.792C74.8196 66.892 74.5196 66.196 73.9196 65.704C73.3316 65.212 72.4616 64.966 71.3096 64.966H67.4396L68.2496 64.066V71.518ZM83.5237 76.108C82.5037 76.108 81.6037 75.898 80.8237 75.478C80.0557 75.058 79.4557 74.482 79.0237 73.75C78.6037 73.018 78.3937 72.178 78.3937 71.23C78.3937 70.282 78.5977 69.442 79.0057 68.71C79.4257 67.978 79.9957 67.408 80.7157 67C81.4477 66.58 82.2697 66.37 83.1817 66.37C84.1057 66.37 84.9217 66.574 85.6297 66.982C86.3377 67.39 86.8897 67.966 87.2857 68.71C87.6937 69.442 87.8977 70.3 87.8977 71.284C87.8977 71.356 87.8917 71.44 87.8797 71.536C87.8797 71.632 87.8737 71.722 87.8617 71.806H79.7437V70.564H86.9617L86.2597 70.996C86.2717 70.384 86.1457 69.838 85.8817 69.358C85.6177 68.878 85.2517 68.506 84.7837 68.242C84.3277 67.966 83.7937 67.828 83.1817 67.828C82.5817 67.828 82.0477 67.966 81.5797 68.242C81.1117 68.506 80.7457 68.884 80.4817 69.376C80.2177 69.856 80.0857 70.408 80.0857 71.032V71.32C80.0857 71.956 80.2297 72.526 80.5177 73.03C80.8177 73.522 81.2317 73.906 81.7597 74.182C82.2877 74.458 82.8937 74.596 83.5777 74.596C84.1417 74.596 84.6517 74.5 85.1077 74.308C85.5757 74.116 85.9837 73.828 86.3317 73.444L87.2857 74.56C86.8537 75.064 86.3137 75.448 85.6657 75.712C85.0297 75.976 84.3157 76.108 83.5237 76.108ZM81.8137 65.074L84.2617 62.734H86.4577L83.4337 65.074H81.8137ZM93.0332 76.108C92.2412 76.108 91.4852 76 90.7652 75.784C90.0572 75.568 89.4992 75.304 89.0912 74.992L89.8112 73.624C90.2192 73.9 90.7232 74.134 91.3232 74.326C91.9232 74.518 92.5352 74.614 93.1592 74.614C93.9632 74.614 94.5392 74.5 94.8872 74.272C95.2472 74.044 95.4272 73.726 95.4272 73.318C95.4272 73.018 95.3192 72.784 95.1032 72.616C94.8872 72.448 94.5992 72.322 94.2392 72.238C93.8912 72.154 93.5012 72.082 93.0692 72.022C92.6372 71.95 92.2052 71.866 91.7732 71.77C91.3412 71.662 90.9452 71.518 90.5852 71.338C90.2252 71.146 89.9372 70.888 89.7212 70.564C89.5052 70.228 89.3972 69.784 89.3972 69.232C89.3972 68.656 89.5592 68.152 89.8832 67.72C90.2072 67.288 90.6632 66.958 91.2512 66.73C91.8512 66.49 92.5592 66.37 93.3752 66.37C93.9992 66.37 94.6292 66.448 95.2652 66.604C95.9132 66.748 96.4412 66.958 96.8492 67.234L96.1112 68.602C95.6792 68.314 95.2292 68.116 94.7612 68.008C94.2932 67.9 93.8252 67.846 93.3572 67.846C92.6012 67.846 92.0372 67.972 91.6652 68.224C91.2932 68.464 91.1072 68.776 91.1072 69.16C91.1072 69.484 91.2152 69.736 91.4312 69.916C91.6592 70.084 91.9472 70.216 92.2952 70.312C92.6552 70.408 93.0512 70.492 93.4832 70.564C93.9152 70.624 94.3472 70.708 94.7792 70.816C95.2112 70.912 95.6012 71.05 95.9492 71.23C96.3092 71.41 96.5972 71.662 96.8132 71.986C97.0412 72.31 97.1552 72.742 97.1552 73.282C97.1552 73.858 96.9872 74.356 96.6512 74.776C96.3152 75.196 95.8412 75.526 95.2292 75.766C94.6172 75.994 93.8852 76.108 93.0332 76.108ZM103.329 76.108C102.513 76.108 101.793 75.958 101.169 75.658C100.557 75.358 100.077 74.902 99.7288 74.29C99.3928 73.666 99.2248 72.886 99.2248 71.95V66.46H100.953V71.752C100.953 72.688 101.175 73.39 101.619 73.858C102.075 74.326 102.711 74.56 103.527 74.56C104.127 74.56 104.649 74.44 105.093 74.2C105.537 73.948 105.879 73.588 106.119 73.12C106.359 72.64 106.479 72.064 106.479 71.392V66.46H108.207V76H106.569V73.426L106.839 74.11C106.527 74.746 106.059 75.238 105.435 75.586C104.811 75.934 104.109 76.108 103.329 76.108ZM123.43 66.37C124.198 66.37 124.876 66.52 125.464 66.82C126.052 67.12 126.508 67.576 126.832 68.188C127.168 68.8 127.336 69.574 127.336 70.51V76H125.608V70.708C125.608 69.784 125.392 69.088 124.96 68.62C124.528 68.152 123.922 67.918 123.142 67.918C122.566 67.918 122.062 68.038 121.63 68.278C121.198 68.518 120.862 68.872 120.622 69.34C120.394 69.808 120.28 70.39 120.28 71.086V76H118.552V70.708C118.552 69.784 118.336 69.088 117.904 68.62C117.484 68.152 116.878 67.918 116.086 67.918C115.522 67.918 115.024 68.038 114.592 68.278C114.16 68.518 113.824 68.872 113.584 69.34C113.344 69.808 113.224 70.39 113.224 71.086V76H111.496V66.46H113.152V68.998L112.882 68.35C113.182 67.726 113.644 67.24 114.268 66.892C114.892 66.544 115.618 66.37 116.446 66.37C117.358 66.37 118.144 66.598 118.804 67.054C119.464 67.498 119.896 68.176 120.1 69.088L119.398 68.8C119.686 68.068 120.19 67.48 120.91 67.036C121.63 66.592 122.47 66.37 123.43 66.37ZM134.764 76.108C133.744 76.108 132.844 75.898 132.064 75.478C131.296 75.058 130.696 74.482 130.264 73.75C129.844 73.018 129.634 72.178 129.634 71.23C129.634 70.282 129.838 69.442 130.246 68.71C130.666 67.978 131.236 67.408 131.956 67C132.688 66.58 133.51 66.37 134.422 66.37C135.346 66.37 136.162 66.574 136.87 66.982C137.578 67.39 138.13 67.966 138.526 68.71C138.934 69.442 139.138 70.3 139.138 71.284C139.138 71.356 139.132 71.44 139.12 71.536C139.12 71.632 139.114 71.722 139.102 71.806H130.984V70.564H138.202L137.5 70.996C137.512 70.384 137.386 69.838 137.122 69.358C136.858 68.878 136.492 68.506 136.024 68.242C135.568 67.966 135.034 67.828 134.422 67.828C133.822 67.828 133.288 67.966 132.82 68.242C132.352 68.506 131.986 68.884 131.722 69.376C131.458 69.856 131.326 70.408 131.326 71.032V71.32C131.326 71.956 131.47 72.526 131.758 73.03C132.058 73.522 132.472 73.906 133 74.182C133.528 74.458 134.134 74.596 134.818 74.596C135.382 74.596 135.892 74.5 136.348 74.308C136.816 74.116 137.224 73.828 137.572 73.444L138.526 74.56C138.094 75.064 137.554 75.448 136.906 75.712C136.27 75.976 135.556 76.108 134.764 76.108ZM133.054 65.074L135.502 62.734H137.698L134.674 65.074H133.054Z" fill="black"/>
</g>
<defs>
<clipPath id="clip0_441_3077">
<rect width="140" height="81" fill="white"/>
</clipPath>
<clipPath id="clip1_441_3077">
<rect width="52" height="53" fill="white"/>
</clipPath>
</defs>
</svg>
