<svg width="300" height="300" viewBox="0 0 300 300" fill="none" xmlns="http://www.w3.org/2000/svg">
<rect width="300" height="300" fill="black"/>
<g clip-path="url(#clip0_441_3100)">
<path d="M125.724 123.038L125.81 123.226L147.712 123.554C149.249 123.574 150.774 123.818 152.24 124.276C154.651 125.029 156.842 126.353 158.623 128.135C159.105 128.614 159.554 129.123 159.97 129.659C162.335 132.737 163.237 135.866 163.049 138.828C162.845 141.935 161.738 144.924 159.752 147.383C158.952 148.37 158.043 149.264 157.042 150.048C153.934 152.503 152.921 156.748 154.66 160.295L158.594 168.326L162.161 175.61L162.256 175.812L175.277 176L175.095 175.61L171.528 168.326L167.591 160.289C165.856 156.744 166.866 152.499 169.976 150.048C170.977 149.262 171.886 148.367 172.686 147.379C174.673 144.925 175.779 141.931 175.976 138.824C176.165 135.862 175.27 132.733 172.904 129.655C171.458 127.782 169.603 126.26 167.478 125.203C165.354 124.146 163.015 123.582 160.639 123.554L125.724 123.038Z" fill="white"/>
<path opacity="0.12" d="M152.126 149.61C150.314 151.237 149.324 153.674 149.324 156.162C149.322 157.404 149.572 158.633 150.059 159.777L153.473 167.746L156.566 174.97L156.646 175.173L155.663 175.158L137.408 174.847C136.055 174.823 134.714 174.576 133.441 174.117C131.283 173.338 129.362 172.024 127.859 170.299C127.436 169.818 127.044 169.311 126.687 168.78C124.882 166.092 123.944 162.921 124 159.69C124.058 155.034 126.081 150.891 129.18 148.193C131.96 145.785 132.797 141.49 131.261 137.932C130.162 135.38 129.18 132.805 128.167 130.419C128.16 130.39 125.096 123.196 125.096 123.196L125.02 123L144.025 123.325C145.366 123.343 146.695 123.584 147.956 124.038C148.042 124.067 148.127 124.101 148.21 124.139C150.253 124.927 152.069 126.206 153.494 127.86C153.915 128.34 154.307 128.845 154.666 129.372C156.719 132.43 157.505 135.533 157.338 138.468C157.163 141.556 156.202 144.521 154.477 146.957C153.796 147.926 153.007 148.816 152.126 149.61Z" fill="white"/>
<path d="M151.122 149.386C149.302 151.035 148.306 153.487 148.306 156.003C148.304 157.252 148.554 158.488 149.041 159.64L152.477 167.681L155.592 174.97L155.664 175.158L137.409 174.847C136.056 174.823 134.715 174.576 133.442 174.117C131.284 173.338 129.363 172.024 127.86 170.299C127.437 169.818 127.045 169.311 126.688 168.78C124.883 166.092 123.945 162.921 124 159.69C124.058 155.034 126.081 150.891 129.18 148.193C131.96 145.785 132.797 141.49 131.261 137.932C130.162 135.38 129.18 132.805 128.168 130.419C128.161 130.39 125.096 123.196 125.096 123.196L125.02 123L144.025 123.325C145.386 123.345 146.733 123.594 148.01 124.062L148.285 124.18C149.895 124.981 151.327 126.094 152.497 127.454C152.922 127.938 153.316 128.448 153.677 128.98C155.744 132.061 156.53 135.191 156.362 138.156C156.188 141.266 155.22 144.259 153.487 146.718C152.798 147.69 152.005 148.585 151.122 149.386Z" fill="#3A86FF"/>
</g>
<defs>
<clipPath id="clip0_441_3100">
<rect width="52" height="53" fill="white" transform="translate(124 123)"/>
</clipPath>
</defs>
</svg>
