<svg width="18" height="18" viewBox="0 0 18 18" fill="none" xmlns="http://www.w3.org/2000/svg">
<path d="M8.54977 13.621L14.0968 8.07403C13.1635 7.68439 12.3159 7.11509 11.6023 6.39853C10.8854 5.68469 10.3158 4.83686 9.92602 3.90328L4.37902 9.45028C3.94627 9.88303 3.72952 10.0998 3.54352 10.3383C3.32385 10.6197 3.13549 10.9243 2.98177 11.2465C2.85202 11.5195 2.75527 11.8105 2.56177 12.391L1.54027 15.4533C1.49326 15.5935 1.48628 15.744 1.52013 15.888C1.55398 16.0319 1.62731 16.1636 1.73187 16.2682C1.83644 16.3727 1.9681 16.4461 2.11206 16.4799C2.25602 16.5138 2.40656 16.5068 2.54677 16.4598L5.60902 15.4383C6.19027 15.2448 6.48052 15.148 6.75352 15.0183C7.07602 14.8645 7.38052 14.6763 7.66177 14.4565C7.90027 14.2705 8.11702 14.0538 8.54977 13.621ZM15.6358 6.53503C16.1888 5.98195 16.4996 5.23182 16.4996 4.44965C16.4996 3.66749 16.1888 2.91735 15.6358 2.36428C15.0827 1.8112 14.3326 1.50049 13.5504 1.50049C12.7682 1.50049 12.0181 1.8112 11.465 2.36428L10.7998 3.02953L10.8283 3.11278C11.1561 4.05082 11.6926 4.90221 12.3973 5.60278C13.1188 6.32855 14 6.87561 14.9705 7.20028L15.6358 6.53503Z" fill="#3A86FF"/>
</svg>
